<svg id="Group_552" data-name="Group 552" xmlns="http://www.w3.org/2000/svg" xmlns:xlink="http://www.w3.org/1999/xlink" width="70" height="70" viewBox="0 0 70 70">
  <defs>
    <clipPath id="clip-path">
      <rect id="Rectangle_299" data-name="Rectangle 299" width="35" height="28.395" fill="#003087"/>
    </clipPath>
  </defs>
  <circle id="Ellipse_416" data-name="Ellipse 416" cx="35" cy="35" r="35" fill="rgba(204,204,204,0.6)"/>
  <g id="Group_547" data-name="Group 547" transform="translate(17.5 18.802)">
    <g id="Group_546" data-name="Group 546" clip-path="url(#clip-path)">
      <path id="Path_142" data-name="Path 142" d="M2.128,28.389a1.976,1.976,0,0,1-1.38-3.518L16.272,12.656h0a1.976,1.976,0,0,1,2.449,0L34.245,24.871a1.973,1.973,0,0,1-2.434,3.1L17.495,16.721,3.2,27.976a1.975,1.975,0,0,1-1.069.413Zm0-12.215a1.976,1.976,0,0,1-1.38-3.518L16.272.425h0a1.975,1.975,0,0,1,2.449,0L34.245,12.656h0a1.973,1.973,0,0,1-2.434,3.105L17.495,4.491,3.2,15.761a1.975,1.975,0,0,1-1.069.413Z" transform="translate(0 0)" fill="#003087"/>
    </g>
  </g>
</svg>
