<?xml version="1.0" encoding="utf-8"?>
<!-- Generator: Adobe Illustrator 26.2.1, SVG Export Plug-In . SVG Version: 6.00 Build 0)  -->
<svg version="1.1" id="Layer_1" xmlns="http://www.w3.org/2000/svg" xmlns:xlink="http://www.w3.org/1999/xlink" x="0px" y="0px"
	 viewBox="0 0 43 31" style="enable-background:new 0 0 43 31;" xml:space="preserve">
<style type="text/css">
	.st0{fill:none;}
	.st1{display:none;}
	.st2{fill:#FFFFFF;}
</style>
<g>
	<rect id="canvas_background" x="1.8" y="3.9" class="st0" width="38.4" height="28.1"/>
</g>
<g>
	<g id="svg_1">
		<rect x="-19.2" class="st1" width="93" height="31"/>
		<path id="svg_2" class="st2" d="M37.9,16.1c-0.4-4.3-4.3-7.4-8.5-7c-4.3,0.4-7.4,4.3-7,8.5c0.2,1.6,0.9,3.2,1.9,4.3l-5.9,7.2
			l2.1,1.7l5.9-7.2c1.4,0.8,2.9,1.1,4.6,0.9C35.3,24.2,38.3,20.4,37.9,16.1z M30.7,21.9c-2.8,0.3-5.3-1.8-5.5-4.5
			c-0.3-2.8,1.8-5.3,4.5-5.5c2.8-0.3,5.3,1.8,5.5,4.5C35.5,19.2,33.5,21.7,30.7,21.9z"/>
		<rect id="svg_3" x="2.7" y="4.7" class="st2" width="22.7" height="2.9"/>
		<path id="svg_4" class="st2" d="M21.1,11.5H2.7v2.9h17.1C20.1,13.4,20.5,12.5,21.1,11.5z"/>
		<path id="svg_5" class="st2" d="M19.7,18.4H2.8v2.9h17.8C20.1,20.4,19.8,19.5,19.7,18.4z"/>
		<path id="svg_5_00000019642516711296007160000010103256848900083859_" class="st2" d="M15.1,24.9H2.8v2.9h12.4
			C15.1,26.8,15.1,26,15.1,24.9z"/>
	</g>
</g>
</svg>
