<?xml version="1.0" encoding="utf-8"?>
<!-- Generator: Adobe Illustrator 26.0.3, SVG Export Plug-In . SVG Version: 6.00 Build 0)  -->
<svg version="1.1" id="Layer_1" xmlns="http://www.w3.org/2000/svg" xmlns:xlink="http://www.w3.org/1999/xlink" x="0px" y="0px"
	 viewBox="0 0 43 31" style="enable-background:new 0 0 43 31;" xml:space="preserve">
<style type="text/css">
	.st0{fill:none;}
	.st1{fill:#666666;}
</style>
<g>
	<rect id="canvas_background" x="-1" y="-1" class="st0" width="45" height="33"/>
</g>
<g>
	<g id="svg_1">
		<path id="svg_2" class="st1" d="M41.3,13.4c-0.5-5-5-8.7-10-8.2s-8.7,5-8.2,10c0.2,1.9,1,3.7,2.2,5l-6.9,8.4l2.5,2l6.9-8.4
			c1.6,0.9,3.4,1.3,5.4,1.1C38.2,22.9,41.8,18.4,41.3,13.4z M32.8,20.2c-3.3,0.3-6.2-2.1-6.5-5.3c-0.3-3.3,2.1-6.2,5.3-6.5
			c3.3-0.3,6.2,2.1,6.5,5.3C38.5,17,36.1,19.9,32.8,20.2z"/>
		<rect id="svg_3" x="0" class="st1" width="26.6" height="3.4"/>
		<path id="svg_4" class="st1" d="M21.6,8H0v3.4h20C20.4,10.2,20.9,9.1,21.6,8z"/>
		<path id="svg_5" class="st1" d="M19.9,16.1H0.1v3.4H21C20.4,18.4,20,17.3,19.9,16.1z"/>
	</g>
</g>
</svg>
